<?xml version="1.0" encoding="utf-8"?>
<!-- Generator: Adobe Illustrator 16.0.4, SVG Export Plug-In . SVG Version: 6.00 Build 0)  -->
<!DOCTYPE svg PUBLIC "-//W3C//DTD SVG 1.1//EN" "http://www.w3.org/Graphics/SVG/1.1/DTD/svg11.dtd">
<svg version="1.1" id="Layer_1" xmlns="http://www.w3.org/2000/svg" xmlns:xlink="http://www.w3.org/1999/xlink" x="0px" y="0px"
	 width="221.5px" height="202px" viewBox="0 0 221.5 202" enable-background="new 0 0 221.5 202" xml:space="preserve">
<g>
	<path fill="#C7E5E4" d="M25.333,6.303c29.101-15.624,59.128,1.166,82.132,26.545c22.148,24.438,76.027,134.031,22.274,164.164
		l0.547-0.294C75.485,224.9,13.857,119.47,5.71,87.509c-8.46-33.19-5.829-67.401,23.264-83.038"/>
	<path opacity="0.3" fill="#AAAAAA" d="M196.572,6.303c-29.102-15.624-59.128,1.166-82.132,26.545
		C92.292,57.285,38.412,166.879,92.165,197.012l-0.547-0.294c54.801,28.183,116.43-77.248,124.576-109.209
		c8.461-33.19,5.83-67.401-23.263-83.038"/>
</g>
<g>
</g>
<g>
</g>
<g>
</g>
<g>
</g>
<g>
</g>
<g>
</g>
<g>
</g>
<g>
</g>
<g>
</g>
<g>
</g>
<g>
</g>
<g>
</g>
<g>
</g>
<g>
</g>
<g>
</g>
</svg>
