<?xml version="1.0" encoding="utf-8"?>
<!-- Generator: Adobe Illustrator 16.0.4, SVG Export Plug-In . SVG Version: 6.00 Build 0)  -->
<!DOCTYPE svg PUBLIC "-//W3C//DTD SVG 1.1//EN" "http://www.w3.org/Graphics/SVG/1.1/DTD/svg11.dtd">
<svg version="1.1" xmlns="http://www.w3.org/2000/svg" xmlns:xlink="http://www.w3.org/1999/xlink" x="0px" y="0px"
	 width="344.009px" height="214px" viewBox="0 0 344.009 214" enable-background="new 0 0 344.009 214" xml:space="preserve">
<g id="Logo_Variations">
</g>
<g id="Logo_on_Page">
	<g id="Layer_3">
	</g>
	<g>
		<g>
			<g>
				<g>
					<path fill="#FFFFFF" d="M57.855,7.805c0,0-0.906,0.203-1.806,0.441c-0.894,0.261-1.787,0.521-1.787,0.521
						c5.689-1.995,11.876-2.967,17.934-2.957c6.072-0.012,12.003,0.921,17.562,2.384c-2.954-1.129-6.101-2.129-9.429-2.891
						c-3.333-0.74-6.848-1.236-10.47-1.382c-3.619-0.142-7.348,0.055-11.033,0.7c-3.683,0.644-7.311,1.704-10.718,3.13
						c-1.704,0.694-3.355,1.539-4.97,2.412c-1.487,0.881-2.917,1.731-4.304,2.734c-2.77,1.952-5.416,4.186-7.777,6.911
						c-2.351,2.702-4.422,5.867-5.788,9.421c-1.371,3.533-1.961,7.46-1.47,10.979c-0.564,0.281-1.189,1.079-1.738,2.331
						c-0.252,0.626-0.489,1.365-0.702,2.203c-0.172,0.822-0.317,1.747-0.407,2.738c-0.328,3.944,0.598,8.742,2.203,12.61
						c1.584,3.908,3.65,7.091,5.313,9.239c1.674,2.16,2.956,3.349,3.235,3.266c4.356,3.43,8.679,6.208,12.984,8.848
						c-2.931-1.847-5.86-3.809-8.795-5.979c2.935,2.171,5.864,4.133,8.795,5.979c4.939,2.992,9.876,5.742,14.84,8.434
						c2.473,1.316,4.962,2.643,7.467,3.977l0.468,0.247c0.118,0.064,0.051,0.023,0.091,0.042l0.073,0.032l0.297,0.13l0.6,0.27
						l1.221,0.573c1.64,0.788,3.291,1.647,4.728,2.468c0.719,0.411,1.386,0.812,1.976,1.208c0.654,0.26-0.344,0.241-0.774,0.338
						c-0.523,0.086-1.041,0.177-1.546,0.284c-1.526,0.318-2.952,0.691-4.217,1.04l-1.78,0.499l-0.796,0.227l-0.373,0.106
						l-0.18,0.051l-0.044,0.013c-0.01,0.003-0.009,0.001-0.027,0.009l-0.1,0.05l-0.4,0.198
						c-8.616,4.338-23.964,13.429-37.397,26.507c-6.707,6.524-12.973,14.104-17.398,22.471c-2.229,4.146-3.936,8.52-5.061,12.743
						c-1.143,4.219-1.6,8.328-1.678,11.779c-0.064,4.012,0.431,8.118,1.514,12.095c-0.797-3.326-0.933-5.046-1.113-6.736
						c-0.115-1.69-0.258-3.404-0.064-6.723c0.246,4.162,1.071,8.262,2.413,12.01c1.345,3.774,3.088,7.105,5.178,10.196
						c0.578,0.795,1.163,1.578,1.753,2.347l0.887,1.143l1.023,1.106c0.688,0.729,1.383,1.443,2.081,2.14
						c0.771,0.676,1.58,1.327,2.377,1.963l1.207,0.936l1.322,0.83c0.89,0.535,1.763,1.087,2.676,1.55
						c1.878,0.839,3.747,1.705,5.666,2.16c-0.613-0.362-1.08-0.683-1.525-1.003c-0.442-0.332-0.855-0.723-1.366-1.142
						c-0.51-0.426-1.112-0.911-1.902-1.523c-0.767-0.646-1.671-1.512-2.837-2.572c0,0,0.38,0.294,0.95,0.733
						c0.582,0.426,1.333,1.041,2.156,1.546c0.835,0.485,1.687,0.958,2.33,1.304c0.323,0.171,0.593,0.314,0.781,0.414
						c0.188,0.105,0.301,0.141,0.301,0.141c0.902,0.084,1.918,0.223,3.015,0.39c0.272,0.043,0.552,0.087,0.837,0.131
						c0.279,0.02,0.565,0.04,0.856,0.061c0.577,0.044,1.174,0.089,1.788,0.136c1.237,0.143,2.457,0.077,3.724,0.075
						c1.285,0.029,2.502-0.126,3.737-0.243c4.905-0.539,9.294-1.84,11.874-3.028c-0.914,1.246,3.511,0.15,7.077-1.245l-1.63,0.013
						c6.847-2.518,13.462-6.231,19.508-10.175c6.038-3.963,11.567-8.139,16.367-11.728c1.326-1.017,2.516-1.518,3.312-1.73
						c0,0,0.539-0.477,1.348-1.191c0.796-0.725,1.856-1.691,2.917-2.657c1.063-0.963,2.11-1.938,2.886-2.679
						c0.779-0.735,1.299-1.226,1.299-1.226c0.144,1.539,7.918-5.298,4.276-1.17c5.552-6.652,12.539-11.771,17.394-18.412
						c20.889-19.891,41.086-42.808,59.173-66.225l-0.824,0.234c6.263-8.269,10.407-16.707,19.188-25.686
						c4.586-7.856,12.121-18.138,12.432-22.52c6.368-8.125,7.975-12.112,14.006-20.318c-2.703,1.181,5.28-8.561,1.268-5.395
						c-5.821,4.065-4.845,5.309-9.63,8.768l0.437,0.146c-18.497,19.186-36.419,38.646-54.725,58.125
						c-11.111,13.99-24.918,27.539-37.674,40.828c-13.633,14.421-28.704,29.606-41.099,40.949c-2.882,2.809-5.817,3.74-8.861,5.293
						c-5.899,4.805-12.948,9.787-20.342,13.936c-3.69,2.053-7.464,3.902-11.113,5.306c-3.641,1.407-7.163,2.326-10.062,2.589
						c0.22-0.004,0.434,0.013,0.574,0.025c-0.771,0.042-1.554,0.127-2.182,0.014c-0.327-0.036-0.662-0.05-0.97-0.094
						c-0.279-0.078-0.555-0.154-0.828-0.23c-0.587-0.084-0.971-0.402-1.434-0.563c-0.244-0.063-0.393-0.261-0.587-0.376
						c-0.183-0.134-0.374-0.243-0.559-0.363c-1.329-1.146-2.417-2.7-3.926-5.245c-0.328,0.204-0.733-0.644-1.102-0.989
						c0.315-0.439-0.742-2.48-1.28-5.749c-0.281-1.642-0.399-3.644-0.154-5.953c0.212-2.302,0.836-4.903,1.79-7.558
						c1.905-5.328,5.241-10.733,8.266-14.694c3.03-3.981,5.649-6.619,6.356-6.972c0.601-0.676,1.228-1.375,1.913-2.048
						c7.078-5.919,15.396-10.691,23.568-14.614c2.28-1.062,4.539-2.116,6.77-3.155c3.603-1.704,7.313-3.311,11.286-4.782
						c1.029-0.354,2.055-0.707,3.075-1.06c1.073-0.335,2.266-0.624,3.388-0.939c1.036-0.338,2.527-0.547,3.856-0.8
						c1.401-0.252,2.795-0.503,4.183-0.752c6.217-1.121,12.303-2.219,18.237-3.289c3.479-0.92,7.129-1.886,10.73-2.839
						c-4.879-2.478-7.257-3.739-8.883-4.493c0.087-0.06,0.151-0.118,0.197-0.174c0.023-0.029,0.042-0.057,0.056-0.084
						c-0.088-0.058-0.174-0.114-0.258-0.17c-0.357-0.224-0.74-0.432-1.143-0.629c-0.799-0.389-1.678-0.735-2.604-1.087
						c-1.86-0.707-3.9-1.431-6.099-2.682c-1.316-1.636-3.229-3.251-5.136-4.616c-1.911-1.368-3.816-2.483-5.276-3.202
						c-1.461-0.72-2.5-1.046-2.826-0.933c-0.332,0.111,0.033,0.656,1.229,1.626c-5.608-2.702-11.161-5.37-16.318-8.076
						c-2.581-1.357-5.1-2.712-7.533-4.075c-1.77-0.996-3.499-1.969-5.173-2.912c-2.694-1.29-5.346-2.601-8.005-3.965
						c-2.274-1.133-3.157-2.345-3.729-3.715c-2.748-1.612-3.563-2.365-4.364-3.197c-0.778-0.844-1.565-1.775-3.878-3.944
						c-0.191-0.947-3.513-3.129-6.364-5.503c-1.438-1.179-2.758-2.394-3.69-3.407c-0.445-0.506-0.843-0.96-1.083-1.328
						c-0.271-0.37-0.426-0.655-0.447-0.825c0,0,0.123,0.155,0.246,0.311c0.139,0.156,0.278,0.313,0.278,0.313
						c-1.278-2.585-1.028-4.614-0.325-5.749c0.727-1.196,1.478-1.812,2.781-3.503c1.909-2.255,5.604-4.964,9.734-7.251
						c3.796-2.041,7.881-3.538,12.184-4.179c8.586-1.419,18.121,0.339,26.55,3.675c0.587-1.133-3.846-1.069-3.552-2.653
						c5.094,1.688,10.034,4.265,14.818,7.199c4.791,2.939,9.45,6.225,14.174,9.498c1.547,1.417,3.271,3.389,3.812,4.261
						c2.721,2.51,2.112,0.787,4.202,2.512l-0.379,1.12c3.721,1.639,3.833,4.483,7.021,6.456c0.438-0.229,1.54,0.585,2.541,1.466
						c-0.703,0.947,3.202,2.577,2.35,3.284l0.087-0.044c0.6,0.536,1.081,0.855,1.692,1.651c0.717,0.336,4.312,2.252,7.901,4.282
						c3.591,2.019,7.166,4.149,7.914,4.516l0.396,0.653c1.595,1.5,2.887,1.523,2.117,0.477l1.886,1.947l-0.28-0.162l1.864,1.947
						c0.278,0.427,0.282,1.214-0.629,1.043c1.369,0.785,2.738,1.847,3.65,3.091c-2.436-3.558-5.448-8.013-7.842-11.959
						c1.614,0.964,3.54,3.738,5.045,5.043c1.134,2.229,4.089,6.161,6.314,9.278c0.622,0.557,1.985,0.053,2.862,1.834
						c-0.033,1.301,1.493,1.533,2.081,3.141c-1.59-0.991-2.638-2.43-3.867-3.787c-0.562,0.967,2.524,3.74,3.284,5.01
						c0.711,0.266,2.848,3.099,4.558,4.549c-1.419-0.021,0.711,1.774,1.172,3.13c0.902,1.2,1.853,1.638,1.721,0.94
						c1.175-0.395-3.478-4.899-1.199-4.137c-0.038,0.775,2.069,2.839,3.153,3.996c0.476-0.394-0.367-1.123,0.756-0.742
						c1.07,1.411,2.863,2.336,3.049,3.522c-0.345-0.14-0.744-0.759-1.073-1.159c0.734,0.888-2.077-0.803-4.798-2.422
						c-2.722-1.621-5.355-3.171-4.23-2.199c-0.055-0.469,2.808,1.321,5.547,3.133c2.74,1.808,5.361,3.629,4.873,3.037
						c-0.693-1.259,1.503,0.028,0.709-1.211l-1.626-0.727c-1.136-1.645-0.868-2.971-0.087-2.727
						c1.066,1.287-1.289,0.197-3.619-0.967c-2.328-1.168-4.635-2.408-3.453-1.568l-0.556-1.05c1.107,0.615,3.513,2.779,3.849,4.137
						c0.462-0.396,1.699,0.672,2.754,1.539l0.238,0.427c1.15,0.841,2.319,2.408,2.333,1.194c-5.475-6.111,8.237-0.003,3.251-6.237
						c1.196,3.412-1.774,0.053-4.23-2.459c0.116-0.559-0.423-2.176-1.865-4.287c-1.551-1.553-1.234-0.623-1.767-0.701
						c-0.592-1.103-1.982-2.98-1.255-3.238c-1.78-0.68-1.463-2.371-3.084-3.666c-1.523-1.047-0.183,0.34-1.358-0.312
						c-1.796-2.031-4.351-4.842-5.748-6.493c-0.11-1.056-1.069-3.704,0.97-3.106c2.802,3.039-2.297,0.059,0.872,2.963
						c-0.202-2.389,2.949,2.43,4.315,2.202c-0.456-1.463-2.386-3.475-4.159-4.994l0.185,0.474c-1.576-1.327-4.703-3.99-5.726-6.121
						c0.747-0.015,0.335-0.982,1.505-0.018l-1.96-2.05c-0.375-0.13-0.761-0.263-0.26,0.395c-1.244-0.635-2.053-1.718-2.577-2.659
						c0.08-0.308-3.061-2.479-6.189-4.484c-3.123-2.015-6.229-3.862-5.94-3.847c-1.545-1.315-1.361-2.287-3.247-3.133
						c-0.223,0.101,3.786,2.879,7.518,5.548c3.736,2.659,7.203,5.193,6.159,4.332c-0.421-0.825-5.133-4.268-9.865-7.53
						c-4.726-3.278-9.479-6.352-9.64-7.163c-1.198-0.914-2.705-1.938-2.78-1.271c-1.827-1.79,1.278-0.391,0.178-1.932
						c-0.088,0.046-0.058,0.316-0.505-0.054l-0.944-1.641c-3.672-1.715-7.733-6.071-11.866-7.401
						c1.347,0.148,3.098,0.025,5.632,1.122l0.211,0.519c0.419,0.072,2.336,1.209,2.618,0.717c-1.852-1.822-3.731-3.006-6.285-4.064
						c-0.33-0.404-0.73-0.857-0.969-1.206c-0.033,0.068-0.033,0.144-0.089,0.21c-0.542-0.788-0.434-0.785-0.04-0.791
						c0.058-0.012,0.127-0.021,0.229-0.004c-0.212-1.147-2.491-2.341-5.192-3.562c-2.699-1.232-5.799-2.49-7.688-3.992
						c-1.346-0.459-0.248,0.18-1.936-0.355c-4-2.824-6.845-4.746-11.515-7.043c-1.808,0.059-2.008,0.288-0.452,1.719
						c0-0.001-0.866-0.43-1.758-0.811c-0.889-0.391-1.777-0.781-1.777-0.781c1.98-0.285,0.455-1.373-1.124-2.367
						c-1.55-1.027-3.167-1.941-0.932-2.283c-0.502-0.382-1.333-0.772-2.324-1.111c-1.003-0.312-2.164-0.576-3.317-0.703
						c-0.348,0.43-0.865,1.061-3.667,0.474c-1.897-0.71-2.652-0.917-3.312-1.118c-0.663-0.201-1.229-0.406-2.884-0.895
						c-0.733-0.718,0.541-0.822,0.458-1.338c-1.346,0.034-2.302-0.025-3.066-0.164c-0.764-0.137-1.322-0.393-1.891-0.615
						c-1.129-0.455-2.239-1.049-4.87-0.92c-1.642,0.13-4.096,0.373-6.129,0.815c-2.032,0.468-3.627,1.047-3.592,1.62
						c-1.084,0.218-1.906,0.336-2.531,0.375c-0.62,0.062-1.043,0.04-1.328-0.049C57.763,8.736,57.753,8.297,57.855,7.805z"/>
				</g>
			</g>
		</g>
		<g>
			<g>
				<g>
					<path fill="#FFFFFF" d="M190.849,69.447l0.942,2.127c-3.5-6.646-6.577-14.03-9.045-21.716
						c2.762,17.743,10.022,37.135,23.419,44.048c-1.47,1.681-0.552,6.254,0.918,10.344c1.465,4.093,3.461,7.691,3.988,7.552
						c2.437,2.413,4.781,4.914,7.055,7.491c-1.519-1.802-3.061-3.583-4.637-5.327c1.576,1.744,3.118,3.525,4.637,5.327
						c3.585,4.073,7.001,8.366,10.222,12.818c1.605,2.225,3.167,4.493,4.618,6.754c0.713,1.118,1.424,2.261,2.019,3.308
						c0.331,0.596,0.435,0.739,0.785,1.469l0.89,1.833c0.593,1.22,1.162,2.483,1.735,3.736c0.553,1.244,1.063,2.463,1.556,3.68
						c0.925,2.388,1.675,4.707,2.053,6.691c0.331,1.96,0.275,3.485-0.024,4.563c-0.117,0.261-0.156,0.525-0.261,0.78
						c-0.153,0.247-0.279,0.492-0.378,0.744c-0.138,0.256-0.378,0.522-0.527,0.79c-0.115,0.26-0.416,0.563-0.661,0.86
						c-0.134,0.167-0.27,0.346-0.405,0.535c-0.11,0.187-0.387,0.41-0.577,0.629c-0.456,0.448-0.771,0.931-1.436,1.48
						c-0.295,0.273-0.599,0.556-0.909,0.845c-0.153,0.146-0.308,0.295-0.465,0.444c-0.188,0.15-0.378,0.303-0.571,0.457
						c-0.383,0.311-0.773,0.627-1.173,0.949c-0.237,0.199-0.303,0.234-0.422,0.33c-0.142,0.127-0.124,0.053-0.176,0.092
						c-0.656,0.408-1.6,0.956-2.573,1.451c-0.975,0.512-2.058,1.021-3.181,1.518c-2.257,0.988-4.715,1.925-7.222,2.711
						c-5.006,1.601-10.189,2.619-14.359,2.866c-4.203,0.287-7.196-0.319-8.286-0.923c-0.328-0.162-0.579-0.318-0.728-0.449
						c-0.094-0.055-0.139-0.156-0.219-0.207c0.013,0.002-0.195-0.129-0.33-0.216l-0.441-0.278c0.234,0.174,0.439,0.327,0.623,0.464
						c0.123,0.088,0.092,0.079,0.123,0.112l0.052,0.072c0.058,0.104,0.118,0.184,0.196,0.248c0.079,0.071,0.117,0.167,0.282,0.256
						c0.139,0.098,0.3,0.232,0.634,0.385c-0.383,0.045-0.762,0.089-1.136,0.132c-0.153,0.026-0.308,0.051-0.439,0.05l-0.221,0.023
						l-0.521-0.152c-0.353-0.104-0.704-0.206-1.053-0.309l-0.915-0.299c-0.323-0.094-0.573-0.203-0.854-0.303
						c-0.274-0.102-0.567-0.199-0.792-0.305l-0.724-0.303l-0.637-0.297l-0.545-0.281c-0.206-0.098-0.254-0.133-0.407-0.194
						c-0.446-0.183-0.821-0.383-1.155-0.729c-0.234,0.25-0.48,0.464-0.684,0.758c-0.109,0.15-0.228,0.335-0.289,0.548
						c-0.08,0.225-0.145,0.501-0.134,0.839c0,0-0.14-0.32-0.207-0.657c-0.062-0.153-0.063-0.333-0.09-0.452
						c-0.021-0.122-0.044-0.196-0.038-0.199c-1.039-0.158-1.834-1.234-2.003-2.501c-0.251-1.127,0.175-3.108,0.401-4.464
						c0.632,0.877,1.549-0.893,2.744-2.527l-0.923,0.365c2.032-3.178,4.881-6.814,8.019-10.233c3.136-3.429,6.551-6.66,9.75-9.232
						c0.888-0.728,1.77-1.003,2.377-1.075c0,0,1.422-1.373,2.894-2.719c1.484-1.338,2.969-2.675,2.969-2.675
						c0.229,1.34,5.997-2.979,3.363-0.139c3.998-4.663,9.591-7.277,13.669-11.575c4.484-2.748,8.976-5.757,13.506-8.742
						c4.494-3.01,9.031-6.049,13.589-9.101c2.257-1.541,4.519-3.085,6.781-4.631l6.804-4.514c4.492-3.123,9.098-5.925,13.614-8.918
						l-0.674-0.163c6.359-4.096,11.403-9.197,20.262-12.145c2.687-2.111,6.155-4.24,9.114-6.289c2.958-2.053,5.415-4.02,6.141-5.722
						c6.947-3.278,9.276-5.634,15.969-9.133c-2.28-0.436,6.156-4.222,2.36-3.719c-5.294,0.263-4.964,1.771-9.429,2.061l0.279,0.349
						c-9.484,2.891-18.938,5.996-28.405,9.43c-2.371,0.895-4.744,1.79-7.12,2.686l-3.559,1.37l-3.562,1.512
						c-2.372,1.024-4.747,2.049-7.125,3.075c-2.368,1.053-4.685,2.245-7.031,3.378c-1.475,0.931-2.978,1.842-4.505,2.737
						c-1.497,0.915-3.007,1.837-4.526,2.764c-3.031,1.841-6.188,3.609-9.276,5.423c-3.061,1.827-6.136,3.662-9.202,5.492
						c-1.525,0.92-3.066,1.841-4.558,2.776c-1.478,0.936-2.943,1.881-4.391,2.836c-3.092,2.098-6.247,4.238-9.406,6.381
						l-2.359,1.624l-2.338,1.578c-1.643,1.108-3.264,2.233-4.857,3.368c-6.372,4.536-12.299,9.25-17.32,13.76
						c-2.32,2.242-4.794,2.857-7.323,4.188c-4.646,4.275-10,9.152-15.064,15.258c-2.516,3.078-4.973,6.464-7.03,10.473
						c-1.026,1.996-1.949,4.156-2.645,6.531c-0.344,1.192-0.642,2.396-0.857,3.746c-0.123,0.643-0.192,1.352-0.259,2.041
						c-0.077,0.691-0.097,1.382-0.104,2.07c0.023-0.414,0.069-0.812,0.101-1.074c-0.378,5.818,0.779,10.986,3.24,15.516
						c1.205,2.255,2.852,4.439,4.475,6.081c0.822,0.891,1.685,1.605,2.587,2.381c0.897,0.682,1.845,1.416,2.82,1.992
						c0.161-0.34,1.367,0.456,2.034,0.599c0.046,0.259,0.852,0.89,2.136,1.584c0.322,0.165,0.675,0.347,1.055,0.542
						c0.191,0.095,0.391,0.192,0.596,0.293c0.264,0.116,0.535,0.235,0.815,0.359c1.152,0.515,2.494,0.972,3.917,1.353
						c2.842,0.748,5.964,1.077,9.065,1.046c3.108-0.027,6.212-0.396,9.182-0.961c11.864-2.27,21.764-7.655,23.222-7.702
						c0.696-0.365,1.419-0.742,2.154-1.127c3.729-1.433,7.485-2.944,11.377-4.995c0.489-0.269,0.974-0.516,1.473-0.817
						c0.582-0.352,1.296-0.772,1.749-1.148l1.37-1.017l1.285-0.94c0.862-0.59,1.701-1.353,2.545-2.072
						c0.837-0.751,1.692-1.396,2.496-2.296c3.269-3.152,6.396-7.579,8.01-12.824c0.796-2.588,1.219-5.313,1.233-7.853
						c0.08-1.32-0.078-2.474-0.186-3.672c-0.068-0.584-0.115-1.203-0.224-1.744c-0.116-0.536-0.231-1.07-0.347-1.6
						c-0.743-1.831-1.67-3.412-2.543-4.981c-0.928-1.431-1.836-2.807-2.748-3.8c-0.143-1.27-0.589-1.883-1.116-2.517
						c-0.534-0.614-1.157-1.223-1.664-2.555c0.021-3.931-0.794-6.643-1.528-7.933c-0.356-0.628-0.711-0.919-0.943-0.814
						c-0.188,0.164-0.277,0.688-0.14,1.637l-1.239-2.072c-0.415-0.665-0.83-1.329-1.242-1.991c-0.771-1.236-1.538-2.464-2.294-3.675
						c-1.478-2.375-2.874-4.638-4.271-6.702c-1.458-1.81-2.917-3.587-4.416-5.37c-1.305-1.496-1.473-2.687-1.331-3.952
						c-3.112-3.952-1.614-3.163-4.139-7.759c0.305-1.691-8.576-10.071-9.021-11.534l0.596,0.633
						c-2.977-5.247-3.055-9.845-5.889-14.926c-3.672-7.216-7.704-14.582-11.301-21.854c-3.593-7.251-6.761-14.475-8.48-20.959
						c-1.253,0.229,1.155,2.757-0.35,3.433c-1.188-3.898-1.842-7.925-1.878-11.437c-0.021-1.745,0.091-3.368,0.325-4.651
						c0.076-0.233,0.141-0.449,0.184-0.672c0.05-0.18,0.112-0.262,0.161-0.393c0.112-0.236,0.227-0.457,0.341-0.674
						c0.445-0.206,1.187-0.094,1.549,0.125c0.589,0.09-0.276-0.627,0.117-0.694l0.677,0.927c-0.13-0.467,0.186-0.256,0.378,0.075
						c0.112,0.16,0.162,0.347,0.286,0.449c0.051,0.052,0.096,0.087,0.136,0.092c0.02,0.003,0.039-0.002,0.057-0.017
						c0.02-0.014,0.179-0.046,0.264-0.084c0.013-0.229,0.177-0.373,0.417-0.469c0.258-0.095,0.501-0.144,0.978-0.167
						c0.079,0.591,0.724,0.507,1.35,0.41c0.506-0.055,0.984-0.128,0.958,0.418l0.016-0.091c0.41-0.016,0.653-0.068,1.104,0.129
						c0.192-0.123,0.681-0.367,1.374-0.715c0.627-0.295,1.46-0.688,2.137-0.971c0.708-0.304,1.36-0.572,1.842-0.737
						c0.269-0.103,0.465-0.156,0.646-0.215c0.183-0.057,0.315-0.098,0.381-0.118l0.012,0.25c0.347,0.227,1.146-0.242,1.048-0.607
						c0.013-0.014,0.441,0.532,0.435,0.547l-0.111-0.012c0,0,0.093,0.153,0.203,0.29c0.095,0.165,0.189,0.329,0.189,0.329
						c0.007,0.172-0.391,0.601-0.933,0.723c0.535,0.094,1.03,0.442,1.03,1.05c0.067-1.688,0.203-3.317-0.551-5.222
						c0.207-0.012,0.389,0.079,0.559,0.208c0.186,0.114,0.335,0.297,0.475,0.482c0.293,0.363,0.5,0.786,0.774,1.021
						c-0.044,1.115,0.199,2.95,0.126,4.804c0.162,0.333,1.533,0.299,1.148,1.396c-0.809,0.62,0.227,1.114-0.334,2.066
						c-0.593-0.934-0.511-1.86-0.672-2.725c-0.984,0.334-0.306,2.271-0.558,3.124c0.4,0.307,0.156,2.308,0.435,3.646
						c-1.033-0.582-0.666,1.052-1.276,1.835c-0.163,0.892,0.19,1.527,0.59,1.173c1.152,0.361,0.839-3.647,1.979-2.327
						c-0.544,0.322-0.445,2.17-0.481,3.196c0.614,0.066,0.516-0.66,1.058,0.053c-0.233,1.135,0.363,2.464-0.362,3.063
						c-0.141-0.241,0.022-0.709,0.08-1.051c-0.127,0.764-0.851-1.452-1.698-3.386c-0.839-1.952-1.764-3.577-1.584-2.735
						c0.273-0.228,1.204,1.646,1.877,3.751c0.689,2.077,1.176,4.264,1.269,3.752c0.415-0.899,1.021,0.826,1.354-0.126l-0.609-1.173
						c0.371-1.287,1.49-1.741,1.869-1.23c-0.164,1.129-1.029-0.608-1.896-2.227c-0.871-1.628-1.748-3.103-1.443-2.242l0.303-0.702
						c0.399,0.722,0.698,2.771-0.035,3.534c0.61,0.045,0.751,1.108,0.874,2.021l-0.133,0.303c0.202,0.952-0.105,2.236,0.77,1.735
						c0.281-2.735,1.709-1.704,3.199-0.555c1.476,1.143,3.004,2.423,3.52-0.456c-1.627,2.259-1.227-0.967-1.256-3.445
						c0.457-0.211,1.214-1.29,1.57-3.11c-0.125-1.568-0.509-0.914-0.854-1.202c0.297-0.86,0.434-2.513,1.154-2.355
						c-0.951-1.13,0.357-2.004-0.18-3.426c-0.617-1.189-0.346,0.146-0.909-0.66c-0.244-1.881-0.989-4.378-1.528-5.747
						c0.167-0.396,0.319-1.146,0.549-1.712c0.247-0.57,0.633-1,1.456-0.634c0.713,1.461,0.163,1.371-0.289,1.291
						c-0.471-0.072-0.842-0.158-0.077,1.206c0.421-0.943,0.793-0.344,1.234,0.537c0.194,0.446,0.394,0.958,0.629,1.372
						c0.209,0.421,0.457,0.746,0.777,0.813c0.404-1.21-0.352-3.367-1.416-4.928l-0.008,0.426c-0.226-0.344-0.512-0.768-0.854-1.22
						c-0.315-0.467-0.698-0.95-1.064-1.451c-0.357-0.507-0.763-0.985-1.074-1.49c-0.355-0.469-0.631-0.963-0.834-1.417
						c0.686-0.092,0.362-0.973,1.38-0.141c0,0-0.104-0.113-0.26-0.284c-0.151-0.177-0.372-0.392-0.601-0.6
						c-0.228-0.21-0.454-0.421-0.624-0.579c-0.169-0.162-0.293-0.254-0.293-0.254c-0.358-0.052-0.712-0.096-0.224,0.411
						c-0.59-0.167-1.057-0.472-1.479-0.793c-0.428-0.311-0.78-0.692-1.088-1.044c0.007-0.135-0.77-0.502-1.942-0.777
						c-1.168-0.302-2.719-0.465-4.2-0.479c-2.98-0.053-5.656,0.631-5.48,0.432c-1.52-0.002-1.926-0.871-3.404-0.213
						c-0.064,0.238,3.54-0.521,7.169-0.476c1.809-0.014,3.599,0.248,4.809,0.451c1.197,0.266,1.816,0.401,1.271,0.227
						c-0.14-0.139-0.545-0.321-1.147-0.522c-0.61-0.145-1.409-0.377-2.34-0.463c-1.856-0.247-4.182-0.245-6.395,0.033
						c-2.217,0.266-4.346,0.706-5.958,1.051c-1.632,0.348-2.793,0.482-3.085,0.297c-0.57,0.138-1.195,0.309-1.618,0.505
						c-0.421,0.215-0.629,0.476-0.415,0.705c-0.952,0.144-0.924-0.149-0.814-0.502c0.104-0.35,0.299-0.764-0.505-0.796
						c0,0.094,0.215,0.232-0.24,0.352c0,0-0.409-0.082-0.811-0.093c-0.411-0.022-0.822-0.044-0.822-0.044
						c-1.341,1.014-3.095,1.982-4.597,3.372c-1.495,1.363-2.698,3.151-2.833,4.954c-0.121-1.127-0.622-2.794,0.527-5.012l0.494-0.12
						c0.059-0.392,1.396-1.858,0.985-2.261c-2.051,1.246-3.344,3.037-3.99,5.489c-0.339,0.339-0.73,0.731-0.999,1.001
						c0.071,0.023,0.142,0.015,0.215,0.062c-0.613,0.607-0.64,0.517-0.732,0.136c-0.023-0.054-0.048-0.119-0.054-0.221
						c-1.036,0.346-1.757,2.858-1.728,5.713c-0.015,2.824,0.545,5.422,0.246,7.386c0.345,1.095,0.293,0.086,0.749,1.43
						c-0.209,3.878-0.135,6.556,0.504,10.437c1.035,1.006,1.328,1.001,1.658-0.625c0.001,0,0.129,0.717,0.283,1.422
						c0.149,0.709,0.299,1.418,0.299,1.418c-1.288-0.987-1.368,0.456-1.379,1.857c-0.027,1.404-0.044,2.804-1.419,1.7
						c-0.146,0.963,0.355,2.676,1.222,4.107c0.515-0.016,1.324-0.04,2.056,1.863c0.457,2.87,0.414,2.162,0.755,4.559
						c-0.363,0.759-0.928,0.06-1.353,0.346c2.174,3.021-0.008,3.475,1.527,6.548c1.055,1.883,2.965,5.627,4.003,5.224
						C192.488,68.938,191.781,69.293,190.849,69.447z"/>
				</g>
			</g>
		</g>
		<g>
			<g>
				<path fill="none" stroke="#737373" stroke-miterlimit="10" d="M128.968,167.515"/>
			</g>
		</g>
	</g>
</g>
</svg>
