<?xml version="1.0" encoding="utf-8"?>
<!-- Generator: Adobe Illustrator 16.0.4, SVG Export Plug-In . SVG Version: 6.00 Build 0)  -->
<!DOCTYPE svg PUBLIC "-//W3C//DTD SVG 1.1//EN" "http://www.w3.org/Graphics/SVG/1.1/DTD/svg11.dtd">
<svg version="1.1" xmlns="http://www.w3.org/2000/svg" xmlns:xlink="http://www.w3.org/1999/xlink" x="0px" y="0px"
	 width="367.481px" height="227.485px" viewBox="0 0 367.481 227.485" enable-background="new 0 0 367.481 227.485"
	 xml:space="preserve">
<g id="Logo_Variations">
</g>
<g id="Logo_on_Page">
	<g>
		<g>
			<g>
				<path fill="#424242" d="M71.369,17.291c0,0-0.906,0.203-1.805,0.44c-0.894,0.261-1.787,0.521-1.787,0.521
					c5.689-1.995,11.875-2.967,17.933-2.957c6.073-0.012,12.004,0.921,17.562,2.384c-2.954-1.129-6.1-2.129-9.428-2.891
					c-3.334-0.74-6.848-1.236-10.47-1.381c-3.619-0.143-7.348,0.055-11.033,0.699c-3.683,0.644-7.312,1.705-10.718,3.13
					c-1.705,0.694-3.356,1.539-4.97,2.413c-1.487,0.881-2.917,1.73-4.304,2.733c-2.77,1.952-5.416,4.187-7.777,6.911
					c-2.352,2.703-4.422,5.867-5.788,9.421c-1.371,3.533-1.961,7.46-1.47,10.979c-0.564,0.281-1.189,1.079-1.738,2.331
					c-0.252,0.626-0.49,1.365-0.703,2.203c-0.171,0.821-0.316,1.747-0.407,2.738c-0.327,3.944,0.599,8.743,2.203,12.61
					c1.584,3.908,3.65,7.091,5.314,9.24c1.673,2.159,2.956,3.348,3.234,3.264c4.357,3.432,8.68,6.209,12.985,8.849
					c-2.932-1.847-5.861-3.809-8.795-5.979c2.934,2.171,5.863,4.133,8.795,5.979c4.938,2.992,9.876,5.742,14.84,8.433
					c2.473,1.317,4.961,2.644,7.466,3.978l0.468,0.247c0.118,0.064,0.052,0.023,0.092,0.043l0.073,0.031l0.296,0.13l0.6,0.271
					l1.221,0.572c1.64,0.788,3.292,1.648,4.729,2.468c0.719,0.411,1.386,0.812,1.975,1.208c0.655,0.26-0.344,0.24-0.773,0.338
					c-0.524,0.086-1.042,0.177-1.547,0.284c-1.525,0.317-2.951,0.69-4.217,1.04l-1.78,0.5l-0.795,0.227l-0.374,0.105l-0.179,0.051
					l-0.044,0.013c-0.011,0.003-0.01,0.001-0.028,0.009l-0.1,0.05l-0.4,0.198c-8.616,4.338-23.963,13.43-37.397,26.508
					c-6.707,6.523-12.973,14.104-17.398,22.471c-2.229,4.145-3.936,8.52-5.061,12.742c-1.142,4.22-1.599,8.328-1.677,11.78
					c-0.065,4.011,0.431,8.118,1.515,12.095c-0.798-3.327-0.934-5.047-1.114-6.736c-0.115-1.69-0.259-3.404-0.064-6.724
					c0.246,4.163,1.071,8.263,2.413,12.011c1.344,3.773,3.088,7.105,5.178,10.195c0.578,0.795,1.163,1.578,1.753,2.348l0.887,1.143
					l1.024,1.105c0.688,0.729,1.383,1.443,2.08,2.141c0.771,0.676,1.58,1.326,2.377,1.962l1.207,0.936l1.322,0.831
					c0.891,0.534,1.763,1.086,2.676,1.549c1.878,0.84,3.747,1.705,5.666,2.16c-0.613-0.362-1.08-0.683-1.525-1.003
					c-0.442-0.333-0.855-0.724-1.367-1.142c-0.509-0.426-1.111-0.911-1.901-1.523c-0.767-0.646-1.671-1.512-2.837-2.572
					c0,0,0.38,0.294,0.95,0.734c0.582,0.425,1.333,1.04,2.156,1.545c0.835,0.486,1.687,0.958,2.331,1.304
					c0.322,0.171,0.592,0.314,0.78,0.414c0.188,0.104,0.301,0.141,0.301,0.141c0.902,0.084,1.918,0.223,3.015,0.39
					c0.272,0.043,0.552,0.086,0.837,0.131c0.28,0.02,0.565,0.04,0.856,0.061c0.577,0.044,1.174,0.089,1.789,0.135
					c1.236,0.144,2.456,0.078,3.723,0.076c1.285,0.029,2.502-0.125,3.737-0.243c4.905-0.539,9.294-1.84,11.874-3.028
					c-0.914,1.246,3.511,0.15,7.076-1.245l-1.629,0.013c6.846-2.518,13.462-6.231,19.508-10.176
					c6.038-3.963,11.566-8.138,16.367-11.727c1.326-1.018,2.515-1.519,3.312-1.73c0,0,0.539-0.477,1.348-1.191
					c0.796-0.726,1.856-1.691,2.917-2.658c1.063-0.963,2.11-1.938,2.886-2.678c0.779-0.735,1.299-1.226,1.299-1.226
					c0.144,1.539,7.918-5.298,4.275-1.171c5.553-6.651,12.539-11.771,17.395-18.411c20.889-19.892,41.085-42.808,59.172-66.225
					l-0.824,0.233c6.263-8.268,10.407-16.706,19.188-25.684c4.586-7.857,12.121-18.139,12.432-22.521
					c6.368-8.125,7.975-12.112,14.006-20.318c-2.703,1.181,5.28-8.56,1.268-5.394c-5.821,4.064-4.845,5.308-9.63,8.768l0.437,0.145
					c-18.496,19.187-36.419,38.646-54.725,58.126c-11.111,13.99-24.918,27.539-37.673,40.828
					c-13.633,14.421-28.704,29.606-41.099,40.949c-2.882,2.809-5.817,3.74-8.861,5.292c-5.899,4.806-12.948,9.788-20.342,13.937
					c-3.69,2.053-7.464,3.902-11.113,5.306c-3.641,1.407-7.163,2.326-10.062,2.589c0.22-0.003,0.434,0.013,0.574,0.025
					c-0.771,0.042-1.554,0.127-2.182,0.013c-0.327-0.035-0.662-0.049-0.971-0.093c-0.278-0.077-0.555-0.154-0.827-0.229
					c-0.587-0.085-0.971-0.403-1.434-0.564c-0.244-0.064-0.393-0.261-0.587-0.376c-0.183-0.134-0.374-0.243-0.559-0.363
					c-1.329-1.146-2.416-2.7-3.926-5.245c-0.328,0.205-0.734-0.644-1.102-0.99c0.315-0.439-0.742-2.479-1.28-5.748
					c-0.281-1.642-0.4-3.644-0.154-5.953c0.211-2.302,0.835-4.902,1.789-7.558c1.905-5.327,5.241-10.733,8.266-14.694
					c3.031-3.981,5.649-6.619,6.356-6.972c0.601-0.676,1.228-1.375,1.913-2.048c7.078-5.919,15.396-10.691,23.569-14.614
					c2.279-1.062,4.538-2.115,6.769-3.155c3.603-1.703,7.313-3.311,11.286-4.781c1.029-0.355,2.054-0.708,3.074-1.061
					c1.074-0.334,2.267-0.624,3.388-0.939c1.036-0.338,2.527-0.547,3.856-0.8c1.401-0.252,2.795-0.503,4.182-0.753
					c6.217-1.12,12.303-2.218,18.238-3.287c3.479-0.921,7.129-1.887,10.73-2.84c-4.879-2.478-7.257-3.739-8.883-4.493
					c0.087-0.06,0.151-0.118,0.197-0.175c0.023-0.027,0.042-0.056,0.057-0.083c-0.088-0.058-0.174-0.114-0.258-0.169
					c-0.357-0.225-0.741-0.433-1.144-0.63c-0.799-0.389-1.677-0.735-2.604-1.087c-1.859-0.707-3.899-1.432-6.098-2.682
					c-1.316-1.635-3.229-3.251-5.136-4.617c-1.911-1.367-3.816-2.482-5.276-3.201c-1.461-0.72-2.5-1.047-2.826-0.933
					c-0.332,0.11,0.033,0.656,1.229,1.626c-5.608-2.702-11.161-5.369-16.318-8.076c-2.581-1.357-5.1-2.712-7.533-4.075
					c-1.77-0.996-3.498-1.97-5.173-2.912c-2.694-1.29-5.345-2.601-8.004-3.965c-2.275-1.133-3.158-2.345-3.729-3.716
					c-2.747-1.611-3.562-2.364-4.364-3.195c-0.778-0.845-1.565-1.776-3.878-3.945c-0.19-0.947-3.513-3.129-6.364-5.503
					c-1.438-1.179-2.758-2.394-3.689-3.407c-0.446-0.506-0.843-0.96-1.083-1.328c-0.271-0.37-0.426-0.655-0.448-0.826
					c0,0,0.123,0.156,0.247,0.312c0.139,0.157,0.277,0.313,0.277,0.313c-1.277-2.584-1.028-4.614-0.325-5.749
					c0.727-1.196,1.479-1.812,2.782-3.503c1.909-2.255,5.604-4.964,9.734-7.25c3.796-2.041,7.88-3.539,12.184-4.18
					c8.585-1.42,18.12,0.338,26.55,3.675c0.587-1.133-3.847-1.069-3.552-2.653c5.093,1.688,10.033,4.265,14.817,7.199
					c4.792,2.939,9.45,6.225,14.174,9.498c1.547,1.418,3.271,3.389,3.812,4.262c2.722,2.509,2.112,0.785,4.202,2.511l-0.379,1.12
					c3.721,1.639,3.833,4.484,7.021,6.457c0.438-0.229,1.54,0.584,2.541,1.465c-0.703,0.947,3.202,2.577,2.35,3.284l0.088-0.044
					c0.599,0.536,1.08,0.855,1.691,1.652c0.717,0.335,4.312,2.252,7.901,4.281c3.591,2.019,7.166,4.149,7.914,4.516l0.396,0.654
					c1.595,1.498,2.887,1.521,2.117,0.476l1.886,1.947l-0.28-0.162l1.864,1.948c0.278,0.426,0.282,1.213-0.629,1.043
					c1.369,0.784,2.738,1.846,3.65,3.09c-2.436-3.558-5.448-8.013-7.842-11.959c1.615,0.964,3.54,3.738,5.045,5.043
					c1.134,2.229,4.089,6.162,6.314,9.278c0.622,0.557,1.985,0.052,2.862,1.834c-0.033,1.302,1.493,1.534,2.081,3.141
					c-1.59-0.991-2.638-2.429-3.867-3.788c-0.562,0.967,2.524,3.741,3.284,5.011c0.711,0.267,2.848,3.099,4.558,4.549
					c-1.419-0.021,0.711,1.774,1.172,3.13c0.902,1.2,1.853,1.638,1.721,0.94c1.175-0.395-3.478-4.899-1.199-4.137
					c-0.038,0.775,2.069,2.839,3.153,3.996c0.476-0.394-0.367-1.122,0.756-0.743c1.07,1.412,2.863,2.337,3.049,3.523
					c-0.345-0.14-0.744-0.759-1.073-1.158c0.734,0.887-2.077-0.804-4.798-2.422c-2.722-1.622-5.355-3.172-4.23-2.2
					c-0.055-0.469,2.808,1.321,5.547,3.133c2.74,1.808,5.361,3.629,4.873,3.037c-0.693-1.259,1.503,0.028,0.709-1.211l-1.626-0.727
					c-1.136-1.645-0.868-2.971-0.087-2.726c1.066,1.286-1.289,0.195-3.619-0.969c-2.328-1.167-4.635-2.407-3.453-1.568l-0.556-1.049
					c1.107,0.615,3.513,2.779,3.849,4.137c0.462-0.396,1.699,0.672,2.754,1.539l0.238,0.426c1.15,0.842,2.319,2.408,2.333,1.195
					c-5.475-6.111,8.237-0.003,3.251-6.238c1.196,3.414-1.774,0.055-4.23-2.458c0.116-0.559-0.423-2.175-1.865-4.287
					c-1.551-1.553-1.234-0.623-1.767-0.701c-0.592-1.103-1.982-2.979-1.255-3.237c-1.78-0.68-1.463-2.372-3.084-3.668
					c-1.523-1.046-0.183,0.341-1.358-0.312c-1.796-2.03-4.351-4.843-5.748-6.493c-0.11-1.057-1.069-3.705,0.97-3.106
					c2.803,3.04-2.297,0.058,0.872,2.963c-0.202-2.389,2.949,2.429,4.315,2.202c-0.456-1.463-2.386-3.475-4.159-4.994l0.185,0.473
					c-1.576-1.326-4.703-3.99-5.726-6.12c0.747-0.015,0.335-0.983,1.505-0.018l-1.959-2.05c-0.376-0.129-0.762-0.263-0.261,0.395
					c-1.244-0.635-2.053-1.717-2.577-2.658c0.081-0.309-3.061-2.479-6.188-4.484c-3.124-2.016-6.23-3.863-5.941-3.848
					c-1.545-1.315-1.361-2.287-3.246-3.133c-0.224,0.101,3.785,2.879,7.517,5.548c3.737,2.659,7.203,5.192,6.159,4.331
					c-0.421-0.824-5.133-4.266-9.865-7.529c-4.726-3.279-9.479-6.352-9.64-7.163c-1.198-0.913-2.705-1.938-2.779-1.271
					c-1.828-1.791,1.277-0.392,0.177-1.933c-0.088,0.046-0.058,0.317-0.505-0.054l-0.943-1.641
					c-3.672-1.715-7.733-6.071-11.867-7.401c1.348,0.148,3.099,0.026,5.632,1.122l0.211,0.519c0.419,0.072,2.337,1.21,2.618,0.717
					c-1.852-1.822-3.731-3.006-6.284-4.064c-0.331-0.404-0.731-0.856-0.97-1.206c-0.033,0.068-0.032,0.145-0.089,0.21
					c-0.542-0.788-0.434-0.784-0.04-0.791c0.058-0.012,0.127-0.021,0.229-0.004c-0.212-1.147-2.491-2.341-5.191-3.562
					c-2.7-1.232-5.8-2.491-7.689-3.993c-1.346-0.458-0.248,0.181-1.936-0.354c-3.999-2.823-6.845-4.746-11.515-7.044
					c-1.808,0.06-2.008,0.289-0.452,1.719c0,0-0.865-0.429-1.758-0.81c-0.889-0.391-1.777-0.78-1.777-0.78
					c1.98-0.286,0.456-1.374-1.124-2.368c-1.549-1.027-3.167-1.94-0.932-2.282c-0.502-0.383-1.333-0.773-2.323-1.111
					c-1.003-0.314-2.165-0.577-3.318-0.705c-0.348,0.432-0.865,1.062-3.667,0.475c-1.896-0.711-2.651-0.917-3.312-1.118
					c-0.663-0.202-1.229-0.406-2.884-0.895c-0.734-0.718,0.54-0.822,0.458-1.338c-1.346,0.034-2.303-0.026-3.067-0.163
					c-0.763-0.139-1.322-0.395-1.89-0.615c-1.129-0.456-2.24-1.05-4.871-0.922c-1.642,0.131-4.096,0.375-6.128,0.816
					c-2.033,0.468-3.627,1.047-3.593,1.621c-1.083,0.217-1.905,0.336-2.53,0.374c-0.62,0.062-1.044,0.04-1.328-0.049
					C71.276,18.222,71.267,17.783,71.369,17.291z"/>
			</g>
		</g>
	</g>
	<g>
		<g>
			<g>
				<path fill="#333333" d="M204.363,78.933l0.941,2.127c-3.499-6.646-6.577-14.03-9.045-21.716
					c2.762,17.743,10.022,37.135,23.419,44.048c-1.47,1.681-0.552,6.255,0.919,10.344c1.464,4.093,3.46,7.691,3.987,7.552
					c2.437,2.413,4.781,4.914,7.055,7.491c-1.519-1.802-3.061-3.583-4.637-5.327c1.576,1.744,3.118,3.525,4.637,5.327
					c3.585,4.073,7.001,8.366,10.222,12.819c1.606,2.224,3.167,4.492,4.618,6.753c0.713,1.118,1.425,2.261,2.019,3.308
					c0.331,0.596,0.435,0.739,0.785,1.469l0.89,1.834c0.593,1.219,1.162,2.482,1.735,3.735c0.553,1.244,1.063,2.463,1.556,3.681
					c0.925,2.387,1.675,4.707,2.053,6.691c0.332,1.959,0.275,3.484-0.023,4.562c-0.118,0.261-0.157,0.525-0.262,0.78
					c-0.153,0.247-0.279,0.492-0.378,0.743c-0.138,0.257-0.378,0.523-0.526,0.791c-0.115,0.26-0.416,0.563-0.661,0.86
					c-0.135,0.167-0.271,0.345-0.405,0.535c-0.11,0.187-0.387,0.409-0.578,0.629c-0.455,0.448-0.771,0.931-1.436,1.48
					c-0.295,0.273-0.598,0.556-0.909,0.845c-0.152,0.146-0.308,0.295-0.464,0.444c-0.188,0.15-0.379,0.303-0.571,0.457
					c-0.383,0.31-0.774,0.626-1.174,0.949c-0.236,0.199-0.302,0.235-0.421,0.33c-0.143,0.127-0.125,0.053-0.176,0.092
					c-0.656,0.408-1.601,0.956-2.574,1.451c-0.975,0.512-2.058,1.021-3.18,1.517c-2.258,0.99-4.716,1.926-7.223,2.712
					c-5.005,1.601-10.189,2.619-14.358,2.866c-4.204,0.287-7.197-0.319-8.286-0.924c-0.328-0.161-0.579-0.317-0.727-0.447
					c-0.095-0.057-0.141-0.156-0.219-0.207c0.012,0-0.196-0.131-0.331-0.217l-0.442-0.279c0.235,0.175,0.44,0.328,0.624,0.465
					c0.123,0.088,0.092,0.08,0.123,0.112l0.052,0.072c0.058,0.104,0.118,0.185,0.197,0.248c0.078,0.071,0.116,0.167,0.281,0.256
					c0.139,0.099,0.3,0.232,0.634,0.386c-0.383,0.044-0.761,0.088-1.136,0.131c-0.153,0.026-0.308,0.051-0.439,0.05l-0.221,0.023
					l-0.521-0.152c-0.353-0.104-0.704-0.206-1.054-0.31l-0.914-0.298c-0.324-0.094-0.574-0.203-0.854-0.304
					c-0.274-0.101-0.567-0.199-0.792-0.305l-0.724-0.303l-0.637-0.296l-0.545-0.281c-0.207-0.099-0.255-0.134-0.408-0.194
					c-0.445-0.183-0.82-0.383-1.155-0.73c-0.234,0.25-0.48,0.465-0.684,0.758c-0.109,0.151-0.227,0.336-0.288,0.549
					c-0.081,0.225-0.145,0.5-0.134,0.838c0,0-0.14-0.319-0.208-0.656c-0.062-0.153-0.063-0.334-0.09-0.452
					c-0.021-0.122-0.044-0.196-0.037-0.2c-1.04-0.157-1.834-1.234-2.003-2.5c-0.252-1.127,0.174-3.109,0.4-4.464
					c0.633,0.877,1.549-0.894,2.744-2.527l-0.922,0.366c2.031-3.18,4.88-6.815,8.018-10.234c3.137-3.429,6.551-6.66,9.75-9.232
					c0.888-0.728,1.77-1.003,2.377-1.076c0,0,1.422-1.373,2.894-2.718c1.484-1.337,2.969-2.675,2.969-2.675
					c0.229,1.34,5.997-2.979,3.364-0.139c3.997-4.664,9.591-7.277,13.668-11.575c4.485-2.748,8.976-5.757,13.506-8.742
					c4.494-3.009,9.032-6.049,13.59-9.101c2.256-1.541,4.518-3.085,6.78-4.631l6.804-4.514c4.492-3.123,9.098-5.924,13.614-8.918
					l-0.674-0.163c6.36-4.097,11.403-9.198,20.262-12.144c2.687-2.113,6.155-4.24,9.114-6.29c2.958-2.052,5.415-4.02,6.141-5.722
					c6.947-3.278,9.276-5.634,15.969-9.133c-2.28-0.436,6.156-4.222,2.36-3.719c-5.294,0.263-4.964,1.77-9.429,2.061l0.279,0.349
					c-9.484,2.891-18.938,5.996-28.405,9.43c-2.371,0.895-4.744,1.79-7.12,2.686l-3.559,1.37l-3.562,1.512
					c-2.372,1.024-4.747,2.049-7.124,3.075c-2.369,1.054-4.686,2.245-7.031,3.378c-1.476,0.931-2.979,1.842-4.506,2.738
					c-1.497,0.914-3.007,1.836-4.526,2.764c-3.031,1.84-6.188,3.608-9.276,5.422c-3.061,1.827-6.136,3.662-9.201,5.492
					c-1.526,0.92-3.066,1.842-4.559,2.776c-1.478,0.937-2.942,1.881-4.391,2.836c-3.092,2.098-6.246,4.238-9.406,6.382l-2.359,1.624
					l-2.337,1.577c-1.644,1.107-3.265,2.233-4.858,3.368c-6.372,4.536-12.299,9.25-17.319,13.76
					c-2.321,2.242-4.795,2.856-7.323,4.187c-4.646,4.276-10,9.154-15.065,15.26c-2.516,3.078-4.973,6.463-7.029,10.472
					c-1.026,1.996-1.95,4.157-2.646,6.532c-0.343,1.191-0.642,2.395-0.857,3.746c-0.123,0.641-0.192,1.351-0.258,2.041
					c-0.078,0.69-0.098,1.381-0.104,2.069c0.023-0.413,0.068-0.813,0.101-1.074c-0.378,5.817,0.778,10.987,3.24,15.516
					c1.205,2.255,2.851,4.439,4.475,6.081c0.821,0.891,1.684,1.605,2.587,2.381c0.897,0.682,1.845,1.416,2.82,1.992
					c0.16-0.34,1.367,0.456,2.033,0.599c0.047,0.259,0.852,0.89,2.137,1.583c0.321,0.166,0.674,0.348,1.054,0.543
					c0.192,0.094,0.391,0.191,0.597,0.293c0.263,0.115,0.534,0.235,0.814,0.359c1.152,0.515,2.495,0.972,3.918,1.353
					c2.841,0.749,5.964,1.077,9.065,1.046c3.107-0.027,6.211-0.396,9.182-0.961c11.864-2.27,21.764-7.655,23.222-7.703
					c0.696-0.364,1.418-0.741,2.154-1.127c3.729-1.432,7.484-2.943,11.376-4.994c0.489-0.269,0.974-0.517,1.474-0.818
					c0.582-0.351,1.295-0.771,1.748-1.148l1.371-1.016l1.285-0.939c0.861-0.59,1.7-1.354,2.544-2.073
					c0.838-0.751,1.693-1.396,2.496-2.296c3.27-3.152,6.397-7.58,8.011-12.824c0.795-2.588,1.219-5.313,1.232-7.854
					c0.081-1.32-0.078-2.473-0.186-3.672c-0.068-0.583-0.115-1.203-0.224-1.743c-0.116-0.537-0.231-1.07-0.346-1.601
					c-0.744-1.83-1.671-3.411-2.544-4.98c-0.928-1.431-1.836-2.807-2.748-3.8c-0.143-1.27-0.589-1.884-1.116-2.517
					c-0.534-0.615-1.157-1.223-1.664-2.555c0.021-3.932-0.794-6.643-1.528-7.933c-0.356-0.628-0.711-0.919-0.943-0.814
					c-0.188,0.164-0.277,0.688-0.14,1.637l-1.239-2.071c-0.415-0.666-0.83-1.33-1.242-1.992c-0.771-1.236-1.538-2.464-2.294-3.675
					c-1.478-2.375-2.874-4.638-4.271-6.702c-1.458-1.809-2.917-3.586-4.416-5.369c-1.305-1.496-1.473-2.688-1.331-3.953
					c-3.112-3.952-1.614-3.163-4.139-7.759c0.305-1.691-8.576-10.071-9.021-11.534l0.596,0.633
					c-2.977-5.247-3.055-9.845-5.889-14.926c-3.672-7.216-7.704-14.582-11.301-21.854c-3.593-7.251-6.76-14.475-8.48-20.959
					c-1.253,0.229,1.155,2.758-0.35,3.434c-1.187-3.898-1.841-7.926-1.878-11.438c-0.021-1.744,0.091-3.368,0.325-4.651
					c0.077-0.233,0.141-0.449,0.184-0.673c0.051-0.178,0.112-0.261,0.162-0.391c0.111-0.236,0.226-0.457,0.34-0.675
					c0.446-0.206,1.188-0.094,1.55,0.125c0.588,0.09-0.276-0.627,0.117-0.694l0.677,0.927c-0.13-0.467,0.185-0.255,0.377,0.075
					c0.112,0.16,0.163,0.348,0.286,0.449c0.052,0.053,0.097,0.087,0.137,0.092c0.02,0.003,0.039-0.002,0.057-0.016
					c0.019-0.014,0.179-0.047,0.264-0.085c0.012-0.229,0.176-0.373,0.417-0.469c0.258-0.095,0.5-0.144,0.978-0.167
					c0.079,0.59,0.724,0.508,1.349,0.41c0.507-0.055,0.984-0.128,0.959,0.418l0.016-0.091c0.41-0.016,0.652-0.068,1.103,0.129
					c0.193-0.123,0.682-0.367,1.375-0.714c0.626-0.296,1.46-0.689,2.136-0.972c0.708-0.304,1.36-0.571,1.842-0.737
					c0.269-0.103,0.466-0.156,0.646-0.215c0.183-0.057,0.315-0.098,0.381-0.118l0.013,0.249c0.346,0.228,1.145-0.241,1.047-0.607
					c0.013-0.014,0.442,0.533,0.436,0.549l-0.112-0.013c0,0,0.094,0.153,0.203,0.29c0.095,0.164,0.189,0.33,0.189,0.33
					c0.008,0.172-0.391,0.6-0.932,0.723c0.535,0.092,1.029,0.441,1.029,1.049c0.068-1.688,0.204-3.318-0.551-5.222
					c0.207-0.011,0.389,0.079,0.559,0.208c0.186,0.114,0.335,0.297,0.475,0.482c0.293,0.363,0.5,0.786,0.775,1.021
					c-0.045,1.115,0.198,2.951,0.125,4.804c0.163,0.333,1.534,0.299,1.149,1.397c-0.81,0.619,0.227,1.113-0.335,2.066
					c-0.593-0.934-0.511-1.861-0.672-2.726c-0.984,0.335-0.306,2.271-0.557,3.124c0.399,0.307,0.156,2.309,0.435,3.646
					c-1.034-0.582-0.666,1.052-1.276,1.835c-0.164,0.893,0.19,1.527,0.59,1.173c1.152,0.362,0.838-3.647,1.979-2.326
					c-0.543,0.321-0.445,2.169-0.48,3.196c0.613,0.065,0.516-0.66,1.058,0.052c-0.233,1.135,0.362,2.465-0.362,3.063
					c-0.141-0.24,0.022-0.709,0.08-1.05c-0.127,0.763-0.851-1.453-1.698-3.386c-0.839-1.952-1.765-3.578-1.585-2.736
					c0.273-0.227,1.205,1.646,1.878,3.751c0.689,2.077,1.177,4.265,1.269,3.752c0.415-0.898,1.021,0.827,1.354-0.126l-0.61-1.172
					c0.372-1.287,1.491-1.742,1.87-1.231c-0.164,1.129-1.029-0.608-1.896-2.227c-0.871-1.628-1.748-3.103-1.443-2.242l0.303-0.702
					c0.399,0.723,0.697,2.771-0.035,3.534c0.609,0.046,0.751,1.108,0.874,2.021l-0.133,0.303c0.202,0.952-0.104,2.236,0.77,1.735
					c0.281-2.734,1.709-1.703,3.198-0.555c1.477,1.143,3.006,2.423,3.521-0.456c-1.627,2.259-1.228-0.967-1.257-3.445
					c0.457-0.211,1.214-1.29,1.57-3.11c-0.125-1.568-0.508-0.914-0.854-1.202c0.298-0.86,0.434-2.513,1.154-2.356
					c-0.951-1.129,0.358-2.004-0.18-3.425c-0.616-1.19-0.346,0.146-0.909-0.661c-0.244-1.88-0.989-4.377-1.528-5.746
					c0.167-0.396,0.32-1.146,0.549-1.712c0.247-0.57,0.633-1,1.456-0.634c0.714,1.461,0.163,1.371-0.288,1.291
					c-0.471-0.072-0.843-0.158-0.077,1.206c0.421-0.944,0.792-0.343,1.233,0.537c0.195,0.446,0.394,0.958,0.629,1.372
					c0.209,0.421,0.458,0.746,0.777,0.814c0.404-1.211-0.352-3.368-1.416-4.928l-0.008,0.425c-0.226-0.344-0.512-0.768-0.854-1.22
					c-0.315-0.467-0.698-0.95-1.064-1.451c-0.356-0.507-0.762-0.985-1.074-1.49c-0.354-0.469-0.63-0.963-0.834-1.416
					c0.686-0.093,0.363-0.973,1.381-0.142c0,0-0.104-0.113-0.261-0.284c-0.151-0.176-0.371-0.392-0.601-0.6
					c-0.227-0.211-0.454-0.421-0.624-0.579c-0.168-0.161-0.292-0.253-0.292-0.253c-0.359-0.053-0.713-0.096-0.224,0.41
					c-0.59-0.167-1.057-0.472-1.479-0.793c-0.427-0.311-0.78-0.691-1.087-1.044c0.006-0.136-0.771-0.503-1.943-0.777
					c-1.168-0.302-2.718-0.466-4.2-0.479c-2.979-0.054-5.656,0.63-5.48,0.433c-1.519-0.002-1.926-0.873-3.404-0.214
					c-0.064,0.239,3.541-0.521,7.169-0.476c1.81-0.014,3.599,0.248,4.809,0.451c1.197,0.266,1.816,0.401,1.271,0.227
					c-0.139-0.139-0.545-0.321-1.146-0.522c-0.611-0.145-1.41-0.377-2.341-0.463c-1.856-0.247-4.181-0.245-6.394,0.033
					c-2.218,0.266-4.346,0.706-5.959,1.051c-1.632,0.349-2.793,0.482-3.085,0.298c-0.57,0.137-1.195,0.308-1.618,0.504
					c-0.421,0.215-0.628,0.477-0.414,0.705c-0.953,0.144-0.924-0.149-0.815-0.502c0.104-0.35,0.299-0.764-0.505-0.796
					c0,0.094,0.215,0.232-0.24,0.353c0-0.001-0.409-0.082-0.81-0.094c-0.412-0.021-0.823-0.044-0.823-0.044
					c-1.34,1.015-3.095,1.982-4.597,3.372c-1.494,1.363-2.697,3.151-2.833,4.955c-0.12-1.128-0.622-2.795,0.527-5.012l0.494-0.121
					c0.06-0.393,1.396-1.857,0.985-2.261c-2.05,1.247-3.343,3.038-3.99,5.489c-0.338,0.34-0.73,0.732-0.998,1.001
					c0.07,0.023,0.141,0.015,0.215,0.062c-0.614,0.607-0.64,0.518-0.733,0.136c-0.022-0.054-0.048-0.119-0.054-0.221
					c-1.036,0.346-1.756,2.858-1.727,5.714c-0.016,2.823,0.545,5.421,0.245,7.385c0.346,1.095,0.293,0.086,0.749,1.43
					c-0.209,3.879-0.135,6.556,0.504,10.437c1.036,1.006,1.328,1.001,1.659-0.624c0,0,0.128,0.717,0.283,1.422
					c0.148,0.709,0.298,1.418,0.298,1.418c-1.288-0.988-1.368,0.455-1.378,1.857c-0.027,1.403-0.045,2.803-1.419,1.699
					c-0.146,0.963,0.354,2.676,1.221,4.107c0.516-0.016,1.324-0.041,2.056,1.863c0.457,2.869,0.414,2.162,0.755,4.559
					c-0.363,0.759-0.928,0.06-1.353,0.346c2.174,3.021-0.008,3.475,1.528,6.549c1.054,1.882,2.964,5.626,4.002,5.223
					C206.002,78.424,205.295,78.778,204.363,78.933z"/>
			</g>
		</g>
	</g>
</g>
</svg>
