<?xml version="1.0" encoding="utf-8"?>
<!-- Generator: Adobe Illustrator 16.0.4, SVG Export Plug-In . SVG Version: 6.00 Build 0)  -->
<!DOCTYPE svg PUBLIC "-//W3C//DTD SVG 1.1//EN" "http://www.w3.org/Graphics/SVG/1.1/DTD/svg11.dtd">
<svg version="1.1" id="Layer_1" xmlns="http://www.w3.org/2000/svg" xmlns:xlink="http://www.w3.org/1999/xlink" x="0px" y="0px"
	 width="36px" height="35.971px" viewBox="0 0 36 35.971" enable-background="new 0 0 36 35.971" xml:space="preserve">
<path fill="#CCCCCC" d="M18-0.019c-9.941,0-18,8.059-18,18c0,9.94,8.059,18,18,18c9.941,0,18-8.06,18-18
	C36,8.04,27.941-0.019,18-0.019z M23.066,10.758h-0.021l-2.301-0.247H20.68l-0.229,0.032l-0.084,0.034l-0.262,0.13
	c-0.056,0.014-0.101,0.041-0.131,0.083l-0.197,0.215c-0.043,0.056-0.084,0.121-0.115,0.196c-0.033,0.065-0.061,0.139-0.084,0.215
	c-0.021,0.076-0.037,0.159-0.047,0.247c-0.012,0.075-0.018,0.158-0.018,0.246l0.032,2.433l3.388,0.033l-0.492,3.848l-2.928,0.113
	v11.197l-0.019,0.017h-4.568V18.239H12.46v-3.863h2.367v-0.033l0.018-0.05l0.082-4.126l0.031-0.229V9.821l0.033-0.113
	c0.012-0.089,0.033-0.171,0.066-0.247c0.021-0.077,0.057-0.147,0.098-0.215c0.043-0.165,0.104-0.312,0.184-0.444
	c0.064-0.143,0.145-0.278,0.244-0.408c0.078-0.122,0.17-0.237,0.281-0.347c0.098-0.12,0.201-0.229,0.311-0.329V7.702l0.792-0.626
	C17.086,7,17.219,6.933,17.361,6.878c0.131-0.056,0.279-0.104,0.443-0.147l0.904-0.181H19.3l4.177,0.328h0.016L23.066,10.758z"/>
</svg>
