<?xml version="1.0" encoding="utf-8"?>
<!-- Generator: Adobe Illustrator 16.0.4, SVG Export Plug-In . SVG Version: 6.00 Build 0)  -->
<!DOCTYPE svg PUBLIC "-//W3C//DTD SVG 1.1//EN" "http://www.w3.org/Graphics/SVG/1.1/DTD/svg11.dtd">
<svg version="1.1" id="Layer_1" xmlns="http://www.w3.org/2000/svg" xmlns:xlink="http://www.w3.org/1999/xlink" x="0px" y="0px"
	 width="150px" height="150px" viewBox="0 0 150 150" enable-background="new 0 0 150 150" xml:space="preserve">
<g id="wordpress">
	<rect x="0.5" fill="#BFBFBF" width="149.998" height="149.999"/>
	<g>
		<path fill="#FFFFFF" d="M46.462,75.713c0,2.631,0.246,5.012,0.738,7.142c0.492,2.13,1.174,3.98,2.045,5.552
			s1.979,2.954,3.322,4.146c1.345,1.193,2.803,2.168,4.373,2.925c1.571,0.757,3.366,1.372,5.382,1.846
			c2.017,0.473,4.075,0.805,6.177,0.994c2.102,0.189,4.41,0.284,6.929,0.284c2.537,0,4.856-0.095,6.958-0.284
			c2.102-0.189,4.165-0.521,6.19-0.994c2.025-0.474,3.829-1.089,5.409-1.846c1.581-0.757,3.049-1.732,4.402-2.925
			c1.354-1.192,2.471-2.575,3.352-4.146c0.88-1.571,1.566-3.422,2.058-5.552c0.493-2.13,0.739-4.511,0.739-7.142
			c0-4.695-1.572-8.756-4.714-12.183c0.171-0.455,0.326-0.971,0.468-1.548c0.143-0.578,0.274-1.401,0.398-2.471
			c0.123-1.07,0.075-2.305-0.143-3.706c-0.218-1.401-0.619-2.83-1.207-4.288l-0.426-0.085c-0.304-0.057-0.801-0.043-1.491,0.042
			c-0.691,0.085-1.495,0.255-2.413,0.511c-0.919,0.255-2.102,0.748-3.55,1.477c-1.448,0.729-2.978,1.642-4.587,2.74
			c-2.764-0.757-6.561-1.136-11.388-1.136c-4.809,0-8.595,0.379-11.358,1.136c-1.61-1.099-3.148-2.012-4.615-2.74
			c-1.468-0.729-2.637-1.222-3.508-1.477c-0.87-0.255-1.684-0.421-2.441-0.497s-1.235-0.1-1.435-0.071
			c-0.198,0.028-0.354,0.062-0.469,0.099c-0.587,1.458-0.989,2.887-1.206,4.289c-0.218,1.401-0.266,2.636-0.143,3.706
			c0.123,1.069,0.256,1.893,0.397,2.47c0.143,0.578,0.299,1.094,0.469,1.548C48.033,66.958,46.462,71.018,46.462,75.713z
			 M53.59,82.841c0-2.726,1.24-5.226,3.721-7.497c0.737-0.682,1.599-1.198,2.584-1.548c0.983-0.351,2.097-0.549,3.336-0.596
			c1.24-0.047,2.429-0.038,3.564,0.028c1.136,0.066,2.537,0.156,4.203,0.27c1.666,0.114,3.104,0.17,4.316,0.17
			c1.211,0,2.65-0.057,4.316-0.17c1.666-0.113,3.067-0.204,4.203-0.27c1.136-0.066,2.323-0.076,3.563-0.028
			c1.24,0.047,2.353,0.246,3.337,0.596c0.984,0.35,1.846,0.866,2.585,1.548c2.479,2.234,3.72,4.733,3.72,7.497
			c0,1.628-0.204,3.072-0.611,4.331c-0.406,1.259-0.927,2.314-1.562,3.166c-0.635,0.852-1.515,1.576-2.641,2.172
			c-1.127,0.596-2.225,1.056-3.294,1.378c-1.07,0.322-2.442,0.572-4.118,0.752s-3.172,0.289-4.487,0.327
			c-1.315,0.038-2.986,0.057-5.012,0.057s-3.696-0.019-5.013-0.057c-1.315-0.038-2.812-0.146-4.486-0.327
			c-1.676-0.18-3.049-0.431-4.117-0.752c-1.07-0.322-2.169-0.782-3.295-1.378c-1.127-0.596-2.007-1.32-2.641-2.172
			c-0.635-0.852-1.155-1.907-1.562-3.166C53.793,85.913,53.59,84.469,53.59,82.841z M82.758,82.269c0,3.007,1.625,5.444,3.63,5.444
			s3.63-2.438,3.63-5.444s-1.625-5.444-3.63-5.444S82.758,79.262,82.758,82.269z M60.98,82.269c0,3.007,1.625,5.444,3.63,5.444
			c2.004,0,3.629-2.438,3.629-5.444s-1.625-5.444-3.629-5.444C62.605,76.825,60.98,79.262,60.98,82.269z"/>
	</g>
</g>
</svg>
