<?xml version="1.0" encoding="utf-8"?>
<!-- Generator: Adobe Illustrator 16.0.4, SVG Export Plug-In . SVG Version: 6.00 Build 0)  -->
<!DOCTYPE svg PUBLIC "-//W3C//DTD SVG 1.1//EN" "http://www.w3.org/Graphics/SVG/1.1/DTD/svg11.dtd">
<svg class="icon" version="1.1" id="Layer_1" xmlns="http://www.w3.org/2000/svg" xmlns:xlink="http://www.w3.org/1999/xlink" x="0px" y="0px"
	 width="36.063px" height="36px" viewBox="0 0 36.063 36" enable-background="new 0 0 36.063 36" xml:space="preserve">
<g>
	<path fill="#CCCCCC" d="M33.586,9.048c-1.609-2.803-3.793-5.021-6.552-6.658s-5.768-2.453-9.036-2.453
		c-3.264,0-6.278,0.817-9.034,2.453C6.208,4.027,4.022,6.246,2.412,9.048C0.806,11.851,0,14.914,0,18.232
		c0,3.986,1.145,7.571,3.434,10.757c2.29,3.185,5.245,5.385,8.871,6.608c0.422,0.082,0.733,0.026,0.938-0.167
		c0.202-0.188,0.303-0.428,0.303-0.711c0-0.048-0.004-0.479-0.011-1.289c-0.009-0.812-0.011-1.517-0.011-2.12l-0.54,0.096
		c-0.342,0.064-0.778,0.091-1.302,0.085c-0.523-0.01-1.065-0.064-1.627-0.168c-0.563-0.102-1.087-0.34-1.57-0.714
		C8,30.235,7.656,29.75,7.452,29.145l-0.235-0.55c-0.154-0.363-0.402-0.77-0.739-1.215c-0.333-0.442-0.674-0.746-1.018-0.903
		l-0.163-0.12c-0.111-0.081-0.212-0.177-0.307-0.286c-0.092-0.111-0.161-0.224-0.209-0.334c-0.047-0.112-0.008-0.201,0.117-0.274
		c0.126-0.072,0.352-0.107,0.68-0.107l0.468,0.073C6.359,25.493,6.744,25.68,7.208,26c0.46,0.317,0.839,0.729,1.136,1.237
		c0.359,0.652,0.793,1.148,1.3,1.49c0.508,0.341,1.02,0.512,1.536,0.512s0.96-0.041,1.335-0.118c0.375-0.082,0.728-0.2,1.056-0.359
		c0.139-1.062,0.523-1.883,1.148-2.454c-0.892-0.094-1.692-0.236-2.404-0.427c-0.71-0.194-1.444-0.502-2.202-0.93
		c-0.757-0.431-1.387-0.962-1.886-1.597c-0.501-0.635-0.911-1.469-1.23-2.502c-0.32-1.031-0.481-2.223-0.481-3.573
		c0-1.921,0.619-3.558,1.853-4.907C7.79,10.927,7.843,9.306,8.531,7.513c0.454-0.145,1.125-0.038,2.017,0.32
		c0.891,0.357,1.543,0.663,1.957,0.916c0.414,0.255,0.746,0.47,0.997,0.646c1.453-0.414,2.953-0.621,4.499-0.621
		c1.548,0,3.047,0.207,4.501,0.621l0.89-0.573C24,8.443,24.719,8.093,25.547,7.775c0.828-0.319,1.462-0.407,1.897-0.262
		c0.704,1.793,0.766,3.414,0.188,4.858c1.234,1.35,1.851,2.987,1.851,4.907c0,1.351-0.159,2.544-0.48,3.585
		c-0.318,1.044-0.732,1.874-1.239,2.503c-0.512,0.626-1.144,1.155-1.9,1.584c-0.759,0.428-1.493,0.735-2.202,0.93
		c-0.711,0.19-1.512,0.333-2.403,0.429c0.812,0.713,1.219,1.842,1.219,3.381v5.03c0,0.281,0.097,0.523,0.293,0.711
		c0.194,0.191,0.504,0.249,0.925,0.167c3.625-1.224,6.583-3.426,8.871-6.61C34.855,25.803,36,22.218,36,18.232
		C35.999,14.914,35.195,11.851,33.586,9.048z"/>
</g>
<g>
</g>
<g>
</g>
<g>
</g>
<g>
</g>
<g>
</g>
<g>
</g>
<g>
</g>
<g>
</g>
<g>
</g>
<g>
</g>
<g>
</g>
<g>
</g>
<g>
</g>
<g>
</g>
<g>
</g>
</svg>
