<?xml version="1.0" encoding="utf-8"?>
<!-- Generator: Adobe Illustrator 16.0.4, SVG Export Plug-In . SVG Version: 6.00 Build 0)  -->
<!DOCTYPE svg PUBLIC "-//W3C//DTD SVG 1.1//EN" "http://www.w3.org/Graphics/SVG/1.1/DTD/svg11.dtd">
<svg version="1.1" id="instagram" xmlns="http://www.w3.org/2000/svg" xmlns:xlink="http://www.w3.org/1999/xlink" x="0px" y="0px"
	 width="36px" height="35.97px" viewBox="0 0 36 35.97" enable-background="new 0 0 36 35.97" xml:space="preserve">
<g>
	<g>
		<g>
			<path fill="#CCCCCC" d="M18,21.588c1.986,0,3.604-1.615,3.604-3.603c0-0.784-0.256-1.508-0.68-2.1
				c-0.656-0.908-1.719-1.503-2.922-1.503s-2.266,0.594-2.924,1.501c-0.426,0.592-0.68,1.317-0.68,2.102
				C14.396,19.971,16.014,21.588,18,21.588z"/>
			<polygon fill="#CCCCCC" points="25.869,13.577 25.869,10.557 25.869,10.107 25.418,10.109 22.398,10.119 22.41,13.59 			"/>
			<path fill="#CCCCCC" d="M18-0.015c-9.924,0-18,8.076-18,18c0,9.925,8.076,18,18,18c9.926,0,18-8.074,18-18
				C36,8.062,27.926-0.015,18-0.015z M28.238,15.886v8.382c0,2.182-1.775,3.955-3.957,3.955H11.721
				c-2.184,0-3.957-1.773-3.957-3.955v-8.382v-4.18c0-2.182,1.773-3.956,3.957-3.956h12.559c2.184,0,3.959,1.774,3.959,3.956V15.886
				z"/>
			<path fill="#CCCCCC" d="M23.6,17.985c0,3.087-2.512,5.599-5.6,5.599s-5.598-2.512-5.598-5.599c0-0.742,0.148-1.451,0.41-2.1
				H9.758v8.382c0,1.082,0.879,1.959,1.961,1.959h12.561c1.082,0,1.963-0.877,1.963-1.959v-8.382h-3.059
				C23.449,16.534,23.6,17.243,23.6,17.985z"/>
		</g>
	</g>
</g>
<g>
</g>
<g>
</g>
<g>
</g>
<g>
</g>
<g>
</g>
<g>
</g>
<g>
</g>
<g>
</g>
<g>
</g>
<g>
</g>
<g>
</g>
<g>
</g>
<g>
</g>
<g>
</g>
<g>
</g>
</svg>
