<?xml version="1.0" encoding="utf-8"?>
<!-- Generator: Adobe Illustrator 16.0.4, SVG Export Plug-In . SVG Version: 6.00 Build 0)  -->
<!DOCTYPE svg PUBLIC "-//W3C//DTD SVG 1.1//EN" "http://www.w3.org/Graphics/SVG/1.1/DTD/svg11.dtd">
<svg version="1.1" id="Layer_1" xmlns="http://www.w3.org/2000/svg" xmlns:xlink="http://www.w3.org/1999/xlink" x="0px" y="0px"
	 width="150px" height="150px" viewBox="0 0 150 150" enable-background="new 0 0 150 150" xml:space="preserve">
<g id="instagram_1_">
	<rect fill="#BCC6CC" width="150" height="149.999"/>
	<path fill="#FFFFFF" d="M89.221,49.748H58.52c-5.335,0-9.674,4.337-9.674,9.671v10.216v20.489c0,5.334,4.339,9.672,9.674,9.672
		h30.701c5.334,0,9.674-4.338,9.674-9.672V69.636V59.419C98.895,54.085,94.555,49.748,89.221,49.748z M91.997,55.517l1.107-0.004
		v1.103v7.381l-8.458,0.027l-0.029-8.483L91.997,55.517z M66.729,69.636c1.602-2.219,4.202-3.673,7.142-3.673
		s5.542,1.454,7.142,3.673c1.045,1.448,1.67,3.218,1.67,5.137c0,4.856-3.955,8.807-8.812,8.807s-8.808-3.951-8.808-8.807
		C65.062,72.854,65.687,71.084,66.729,69.636z M94.018,90.125c0,2.646-2.148,4.795-4.797,4.795H58.52
		c-2.648,0-4.797-2.149-4.797-4.795V69.636h7.472c-0.647,1.587-1.009,3.32-1.009,5.137c0,7.544,6.139,13.686,13.685,13.686
		s13.685-6.142,13.685-13.686c0-1.816-0.365-3.55-1.009-5.137h7.472V90.125z"/>
</g>
</svg>
