<?xml version="1.0" encoding="utf-8"?>
<!-- Generator: Adobe Illustrator 16.0.4, SVG Export Plug-In . SVG Version: 6.00 Build 0)  -->
<!DOCTYPE svg PUBLIC "-//W3C//DTD SVG 1.1//EN" "http://www.w3.org/Graphics/SVG/1.1/DTD/svg11.dtd">
<svg version="1.1" id="Layer_1" xmlns="http://www.w3.org/2000/svg" xmlns:xlink="http://www.w3.org/1999/xlink" x="0px" y="0px"
	 width="36px" height="36px" viewBox="0 0 36 36" enable-background="new 0 0 36 36" xml:space="preserve">
<path fill="#CCCCCC" d="M18,0C8.059,0,0,8.059,0,18c0,9.941,8.059,18,18,18c9.941,0,18-8.059,18-18C36,8.059,27.941,0,18,0z
	 M13.876,25.555l-0.017,0.016H9.69V14.466h4.186V25.555z M13.892,11.156c-0.021,0.1-0.044,0.199-0.065,0.298
	c-0.022,0.089-0.05,0.177-0.083,0.265c-0.045,0.089-0.088,0.177-0.132,0.266c-0.056,0.088-0.11,0.17-0.166,0.248
	c-0.065,0.077-0.132,0.153-0.198,0.231c-0.077,0.065-0.154,0.132-0.232,0.198c-0.076,0.065-0.159,0.126-0.247,0.182
	c-0.089,0.044-0.177,0.083-0.266,0.116s-0.177,0.066-0.265,0.1c-0.199,0.044-0.392,0.066-0.579,0.066h-0.017
	c-0.11,0-0.215-0.006-0.313-0.017c-0.11-0.012-0.216-0.027-0.315-0.05c-0.099-0.023-0.199-0.056-0.298-0.1
	c-0.265-0.1-0.496-0.266-0.695-0.496c-0.165-0.154-0.292-0.314-0.38-0.479c-0.055-0.089-0.1-0.177-0.133-0.266
	c-0.033-0.088-0.061-0.176-0.082-0.265c-0.033-0.099-0.051-0.198-0.051-0.298c-0.021-0.099-0.027-0.198-0.016-0.298
	c-0.012-0.166,0-0.319,0.033-0.463c0.021-0.154,0.061-0.298,0.115-0.43c0.056-0.133,0.128-0.261,0.216-0.382
	C9.801,9.463,9.9,9.347,10.021,9.236c0.144-0.154,0.299-0.275,0.464-0.363c0.177-0.1,0.363-0.177,0.562-0.232
	c0.089-0.021,0.188-0.038,0.299-0.049c0.099-0.022,0.198-0.027,0.297-0.017c0.154-0.011,0.304,0,0.446,0.032
	c0.143,0.023,0.282,0.067,0.414,0.133c0.133,0.056,0.266,0.122,0.397,0.199c0.122,0.088,0.238,0.187,0.348,0.297
	c0.11,0.11,0.209,0.227,0.298,0.348c0.077,0.11,0.144,0.227,0.198,0.349c0.033,0.088,0.061,0.182,0.083,0.28
	c0.021,0.1,0.044,0.204,0.065,0.314c0.012,0.11,0.017,0.221,0.017,0.331C13.909,10.958,13.904,11.057,13.892,11.156z M27.514,25.555
	l-0.018,0.016h-4.17v-5.112c-0.012-1.226-0.078-2.002-0.199-2.333c-0.109-0.299-0.275-0.53-0.496-0.696
	c-0.121-0.088-0.254-0.148-0.396-0.182c-0.066-0.012-0.127-0.022-0.184-0.033c-0.088-0.011-0.176-0.017-0.264-0.017
	c-0.1,0-0.188,0.006-0.266,0.017c-0.065,0.011-0.131,0.021-0.197,0.033c-0.155,0.021-0.305,0.066-0.447,0.132
	c-0.145,0.055-0.271,0.127-0.381,0.216c-0.11,0.065-0.21,0.148-0.298,0.248c-0.089,0.1-0.166,0.205-0.232,0.315
	c-0.065,0.109-0.12,0.237-0.165,0.379l-0.031,0.018l-0.066,0.281l-0.165,1.721v4.998l-0.017,0.016H15.35V14.466h3.955v1.273
	c0.166-0.143,0.336-0.275,0.514-0.396c0.177-0.121,0.357-0.227,0.546-0.314c0.187-0.1,0.386-0.188,0.596-0.266
	c0.198-0.077,0.401-0.138,0.612-0.182c0.209-0.056,0.424-0.095,0.645-0.116c0.221-0.033,0.447-0.045,0.68-0.033h0.381l0.728,0.1
	c0.122,0.011,0.243,0.032,0.365,0.065c0.108,0.033,0.22,0.066,0.33,0.1c0.1,0.033,0.204,0.078,0.313,0.133h0.032
	c0.663,0.299,1.166,0.662,1.507,1.092h0.051c0.088,0.11,0.17,0.227,0.248,0.348c0.064,0.122,0.127,0.249,0.182,0.381
	c0.056,0.121,0.109,0.248,0.165,0.381c0.022,0.055,0.045,0.116,0.065,0.182c0.012,0.077,0.027,0.154,0.051,0.231v0.033
	c0.033,0.121,0.062,0.265,0.082,0.431c0.022,0.154,0.045,0.325,0.066,0.513c0.012,0.176,0.021,0.375,0.033,0.596
	c0.011,0.209,0.018,0.437,0.018,0.678V25.555z"/>
</svg>
