<?xml version="1.0" encoding="utf-8"?>
<!-- Generator: Adobe Illustrator 16.0.4, SVG Export Plug-In . SVG Version: 6.00 Build 0)  -->
<!DOCTYPE svg PUBLIC "-//W3C//DTD SVG 1.1//EN" "http://www.w3.org/Graphics/SVG/1.1/DTD/svg11.dtd">
<svg version="1.1" id="Layer_1" xmlns="http://www.w3.org/2000/svg" xmlns:xlink="http://www.w3.org/1999/xlink" x="0px" y="0px"
	 width="150px" height="150px" viewBox="0 0 150 150" enable-background="new 0 0 150 150" xml:space="preserve">
<g id="linkedin_1_">
	<rect fill="#91C9DB" width="149.998" height="149.999"/>
	<path fill="#FFFFFF" d="M60.802,98.009H50.88V66.26h9.922V98.009z M55.586,62.288h-0.071c-3.59,0-5.918-2.428-5.918-5.501
		c0-3.136,2.397-5.513,6.06-5.513c3.659,0,5.911,2.371,5.982,5.504C61.639,59.853,59.315,62.288,55.586,62.288z M100.493,98.009
		H89.244v-16.43c0-4.3-1.759-7.235-5.629-7.235c-2.959,0-4.604,1.98-5.371,3.89c-0.286,0.683-0.243,1.638-0.243,2.595v17.18H66.856
		c0,0,0.145-29.104,0-31.749h11.145v4.982c0.659-2.178,4.219-5.289,9.905-5.289c7.049,0,12.587,4.568,12.587,14.401V98.009z"/>
</g>
</svg>
