<?xml version="1.0" encoding="utf-8"?>
<!-- Generator: Adobe Illustrator 16.0.4, SVG Export Plug-In . SVG Version: 6.00 Build 0)  -->
<!DOCTYPE svg PUBLIC "-//W3C//DTD SVG 1.1//EN" "http://www.w3.org/Graphics/SVG/1.1/DTD/svg11.dtd">
<svg version="1.1" id="Layer_1" xmlns="http://www.w3.org/2000/svg" xmlns:xlink="http://www.w3.org/1999/xlink" x="0px" y="0px"
	 width="36px" height="36px" viewBox="0 0 36 36" enable-background="new 0 0 36 36" xml:space="preserve">
<path fill="#CCCCCC" d="M18,0C8.059,0,0,8.059,0,18s8.059,18,18,18s18-8.059,18-18S27.941,0,18,0z M27.179,14.509l0.016,0.589
	c0,6.007-4.572,12.934-12.934,12.934c-2.567,0-4.955-0.756-6.968-2.047c0.355,0.041,0.719,0.062,1.084,0.062
	c2.128,0,4.091-0.724,5.645-1.942c-1.987-0.035-3.665-1.35-4.244-3.158c0.279,0.057,0.562,0.085,0.856,0.085
	c0.415,0,0.725-0.056,1.106-0.157C9.661,20.454,8,18.616,8,16.415v-0.056c1,0.34,1.406,0.544,2.153,0.569
	c-1.219-0.814-1.976-2.205-1.976-3.784c0-0.832,0.245-1.614,0.636-2.283c2.242,2.749,5.605,4.56,9.38,4.749
	c-0.076-0.333-0.11-0.68-0.11-1.036c0-2.509,2.039-4.543,4.549-4.543c1.309,0,2.49,0.55,3.318,1.435
	c1.037-0.205,2.008-0.583,2.888-1.103c-0.339,1.058-1.057,1.951-1.995,2.514c0.918-0.11,1.794-0.354,2.609-0.718
	C28.846,13.07,28.073,13.87,27.179,14.509z"/>
<g>
</g>
<g>
</g>
<g>
</g>
<g>
</g>
<g>
</g>
<g>
</g>
<g>
</g>
<g>
</g>
<g>
</g>
<g>
</g>
<g>
</g>
<g>
</g>
<g>
</g>
<g>
</g>
<g>
</g>
</svg>
