<?xml version="1.0" encoding="utf-8"?>
<!-- Generator: Adobe Illustrator 16.0.4, SVG Export Plug-In . SVG Version: 6.00 Build 0)  -->
<!DOCTYPE svg PUBLIC "-//W3C//DTD SVG 1.1//EN" "http://www.w3.org/Graphics/SVG/1.1/DTD/svg11.dtd">
<svg version="1.1" id="Layer_1" xmlns="http://www.w3.org/2000/svg" xmlns:xlink="http://www.w3.org/1999/xlink" x="0px" y="0px"
	 width="36px" height="36px" viewBox="0 0 36 36" enable-background="new 0 0 36 36" xml:space="preserve">
<g>
	<circle fill="#C0CCCA" cx="18" cy="18" r="18"/>
	<g>
		<g>
			<path fill="#F6F6F6" d="M29.452,12.159c-0.815,0.363-1.691,0.607-2.609,0.718c0.938-0.562,1.657-1.456,1.996-2.514
				c-0.88,0.52-1.851,0.897-2.888,1.103c-0.828-0.885-2.008-1.435-3.316-1.435c-2.51,0-4.546,2.034-4.546,4.543
				c0,0.356,0.04,0.703,0.116,1.036c-3.775-0.189-7.127-2-9.369-4.749c-0.392,0.669-0.613,1.451-0.613,2.283
				c0,1.579,0.804,2.97,2.022,3.784c-0.747-0.025-1.447-0.229-2.061-0.569v0.056c0,2.201,1.568,4.039,3.647,4.459
				c-0.381,0.102-0.783,0.157-1.198,0.157c-0.295,0-0.577-0.028-0.856-0.085c0.579,1.809,2.257,3.123,4.244,3.158
				c-1.554,1.219-3.517,1.942-5.645,1.942c-0.365,0-0.729-0.021-1.084-0.062c2.013,1.291,4.4,2.047,6.968,2.047
				c8.361,0,12.934-6.927,12.934-12.934l-0.016-0.589C28.073,13.87,28.846,13.07,29.452,12.159z"/>
		</g>
	</g>
</g>
<g>
</g>
<g>
</g>
<g>
</g>
<g>
</g>
<g>
</g>
<g>
</g>
<g>
</g>
<g>
</g>
<g>
</g>
<g>
</g>
<g>
</g>
<g>
</g>
<g>
</g>
<g>
</g>
<g>
</g>
</svg>
