<?xml version="1.0" encoding="utf-8"?>
<!-- Generator: Adobe Illustrator 16.0.4, SVG Export Plug-In . SVG Version: 6.00 Build 0)  -->
<!DOCTYPE svg PUBLIC "-//W3C//DTD SVG 1.1//EN" "http://www.w3.org/Graphics/SVG/1.1/DTD/svg11.dtd">
<svg version="1.1" id="Layer_1" xmlns="http://www.w3.org/2000/svg" xmlns:xlink="http://www.w3.org/1999/xlink" x="0px" y="0px"
	 width="150px" height="150px" viewBox="0 0 150 150" enable-background="new 0 0 150 150" xml:space="preserve">
<g id="twitter_1_">
	<rect fill="#65CCEF" width="149.998" height="149.999"/>
	<g>
		<g>
			<path fill="#FFFFFF" d="M100.638,56.687c-1.984,0.959-4.094,1.579-6.33,1.866c2.277-1.467,4.026-3.776,4.854-6.545
				c-2.131,1.351-4.49,2.317-7.004,2.881c-1.999-2.313-4.869-3.755-8.027-3.755c-6.079,0-11.005,5.299-11.005,11.851
				c0,0.92,0.096,1.83,0.278,2.686c-9.131-0.471-17.25-5.208-22.682-12.362c-0.943,1.745-1.485,3.776-1.485,5.956
				c0,4.101,1.941,7.75,4.899,9.844c-1.808-0.074-3.505-0.578-4.986-1.474c0,0.049,0,0.11,0,0.162c0,5.73,3.793,10.512,8.827,11.619
				c-0.923,0.269-1.897,0.391-2.908,0.391c-0.706,0-1.378-0.049-2.057-0.21c1.394,4.725,5.461,8.156,10.276,8.227
				c-3.767,3.193-8.512,5.069-13.668,5.069c-0.891,0-1.77-0.052-2.629-0.165c4.87,3.377,10.644,5.345,16.874,5.345
				c20.24,0,31.315-18.06,31.315-33.716c0-0.5-0.012-1.008-0.036-1.516C97.293,61.148,99.162,59.057,100.638,56.687z"/>
		</g>
	</g>
</g>
</svg>
